 http://www.torrentday.com - Your Key To The Scene.

 
http://www.torrentday.com :  Clean RAR Scene Releases!


Enjoy =)

...................................NFO:....................................

.      *********** ****    ****      ***      ******** *********** ****    *** **********
           *+*     +*+*+* *+*+*+   *+* *+*   *+*    *+*    *+*     *+*+*   *+* *+*        
           +*+     +*+ +*+*+ +*+  +*+   +*+  +*+           +*+     *+*+*+  +*+ +*+        
           +$+     +$+  +*+  +$+ +$++*++$++* *$*           +$+     +$+ +*+ +$+ +$++*++$  
           +$+     +$+       +$+ +$+     +$+ +$+   +$+$    +$+     +$+  +$+$+$ +$+        
           $+$     $+$       $+$ $+$     $+$ $+$    $+$    $+$     $+$   $+$+$ $+$        
       $$$$$$$$$$$ $$$       $$$ $$$     $$$  $$$$$$$$ $$$$$$$$$$$ $$$    $$$$ $$$$$$$$$$     
                                                



                           Another Fine Release Brought to you from - IMAGiNE                   
                                              http://imaginegroup.me/  
    
********************************************************************************************************************                                
                                      Legion R5 LiNE XViD V2 - IMAGiNE
********************************************************************************************************************

Ripper ...........: IMAGiNE                                        IMDB Rating.......:5.9/10                             
Video Codec.......: XVID                                         Release Date......:19/02/10
Audio Codec.......:MP3                                           Theatre Date......:22/01/10
Audio Bitrate.....:192                                              Runtime.......:1h 35mn
Subtitles.........:NIL                                                 Language..........:ENGLISH
Resolution...... 704 x 288                                      IMDb URL..........:http://www.imdb.com/title/tt1038686/


[color=yellow]DETAILS:[/color]

Video
ID                               : 0
Format                           : MPEG-4 Visual
Format profile                   : Advanced Simple@L5
Format settings, BVOP            : Yes
Format settings, QPel            : No
Format settings, GMC             : No warppoints
Format settings, Matrix          : Default (H.263)
Muxing mode                      : Packed bitstream
Codec ID                         : XVID
Codec ID/Hint                    : XviD
Duration                         : 1h 35mn
Bit rate                         : 2 043 Kbps
Width                            : 704 pixels
Height                           : 288 pixels
Display aspect ratio             : 2.40:1
Frame rate                       : 25.000 fps
Resolution                       : 8 bits
Colorimetry                      : 4:2:0
Scan type                        : Progressive
Bits/(Pixel*Frame)               : 0.403
Stream size                      : 1.37 GiB (91%)
Writing library                  : XviD 1.2.1 (UTC 2008-12-04)

Audio
ID                               : 1
Format                           : MPEG Audio
Format version                   : Version 1
Format profile                   : Layer 3
Codec ID                         : 55
Codec ID/Hint                    : MP3
Duration                         : 1h 35mn
Bit rate mode                    : Constant
Bit rate                         : 192 Kbps
Channel(s)                       : 2 channels
Sampling rate                    : 48.0 KHz
Stream size                      : 132 MiB (9%)
Alignment                        : Aligned on interleaves
Interleave, duration             : 40 ms (1.00 video frame)
Interleave, preload duration     : 504 ms


[color=yellow]NOTES:[/color]

IMAGiNE bringing you another release.....
Here we go again with another V2......this time the video is same as before but we've muxed
ghostmans audio (thanks) to it as it was sweet :)
And yes full english audio before you ask :P

[color=yellow]SCREENS:[/color]

[IMG]http://imagine.takagari.com/LEGION%20R5/vlcsnap-159795.png[/IMG]
[IMG]http://imagine.takagari.com/LEGION%20R5/vlcsnap-160197.png[/IMG]
[IMG]http://imagine.takagari.com/LEGION%20R5/vlcsnap-160978.png[/IMG]
[IMG]http://imagine.takagari.com/LEGION%20R5/vlcsnap-161379.png[/IMG]
[IMG]http://imagine.takagari.com/LEGION%20R5/vlcsnap-161490.png[/IMG]
[IMG]http://imagine.takagari.com/LEGION%20R5/vlcsnap-162675.png[/IMG]


[color=yellow]GREETS:[/color]

FLAWL3SS,ViSiON,DEViSE,FUSiON,STG,SecretMyth,BirdFlu,ELEKTRI4KA
And to all the other p2p grps past and present 

Special thanks to Python-Lair for the server :)
And special thanks to supreme-speeds.com for the ripbox :)

[COLOR=RED]Looking for these,syncers,cammer,silver supplier.....Have anything to offer????......
Contact us imaginegroup@hushmail.com[/COLOR]